<svg width="500" height="376" viewBox="0 0 500 376" fill="none" xmlns="http://www.w3.org/2000/svg">
    <path opacity="0.6" d="M122.68 57.2241L128.023 60.3604L133.416 63.4104L133.367 69.5968L133.416 75.7831L128.023 78.8331L122.68 81.9694L117.337 78.8331L111.944 75.7831L111.994 69.5968L111.944 63.4104L117.337 60.3604L122.68 57.2241Z" fill="#2075E8" />
    <path opacity="0.6" d="M129.274 58.1976L129.274 58.1976L129.277 58.1989L135.933 61.9751L135.871 69.6343L135.871 69.637L135.933 77.2961L129.277 81.0723L129.277 81.0723L129.274 81.0736L122.68 84.9565L116.086 81.0736L116.086 81.0736L116.083 81.0723L109.427 77.2961L109.489 69.637H109.489L109.489 69.6343L109.427 61.9751L116.083 58.1989L116.083 58.199L116.086 58.1976L122.68 54.3147L129.274 58.1976Z" stroke="#2075E8" strokeOpacity="0.3" strokeWidth="0.333497" />
    <path opacity="0.8" d="M122.68 60.3173L126.688 62.6695L130.732 64.957L130.695 69.5967L130.732 74.2365L126.688 76.524L122.68 78.8762L118.673 76.524L114.628 74.2365L114.665 69.5967L114.628 64.957L118.673 62.6695L122.68 60.3173Z" fill="#569AEF" />
    <path opacity="0.6" d="M398.987 89.7998L400.761 92.3413L402.575 94.854L401.263 97.6543L399.996 100.476L396.91 100.735L393.828 101.043L392.054 98.5016L390.24 95.9889L391.552 93.1886L392.819 90.3673L395.905 90.1084L398.987 89.7998Z" fill="#2075E8" />
    <path opacity="0.6" d="M401.779 91.6178L401.779 91.6178L401.78 91.6189L404.017 94.7256L402.392 98.1929L402.392 98.1941L400.823 101.687L397.011 102.012L397.011 102.012L397.01 102.012L393.204 102.399L391.017 99.2564L391.017 99.2564L391.016 99.2553L388.779 96.1486L390.404 92.6812L390.404 92.6812L390.404 92.68L391.973 89.1869L395.785 88.862L395.785 88.862L395.786 88.8618L399.592 88.4755L401.779 91.6178Z" stroke="#2075E8" strokeOpacity="0.3" strokeWidth="0.165917" />
    <path opacity="0.8" d="M398.341 91.2031L399.671 93.1092L401.032 94.9937L400.048 97.094L399.098 99.21L396.783 99.4042L394.472 99.6356L393.141 97.7295L391.78 95.845L392.765 93.7447L393.715 91.6288L396.03 91.4346L398.341 91.2031Z" fill="#569AEF" />
    <path d="M174.879 190.648C107.687 216.744 121.991 253.695 167.433 279.492C204.856 300.722 265.296 280.119 255.307 267.43C249.285 259.756 217.968 263.1 222.949 283.941C228.548 307.35 288.987 353.182 403.733 288.42" stroke="#FFB469" strokeWidth="0.3" strokeDasharray="1 1" />
    <path opacity="0.6" d="M407.747 275.776L411.504 275.973L415.264 276.11L416.959 279.459L418.707 282.781L416.646 285.933L414.635 289.117L410.878 288.92L407.118 288.783L405.423 285.434L403.674 282.113L405.736 278.961L407.747 275.776Z" fill="#2075E8" />
    <path opacity="0.6" d="M411.578 274.457L411.578 274.457L411.579 274.457L416.223 274.632L418.322 278.779L418.323 278.781L420.488 282.893L417.947 286.79L417.946 286.792L415.467 290.729L410.827 290.479L410.825 290.479L406.181 290.304L404.082 286.157L404.082 286.155L401.916 282.043L404.458 278.146L404.458 278.146L404.459 278.144L406.937 274.207L411.578 274.457Z" stroke="#2075E8" strokeOpacity="0.3" strokeWidth="0.201328" />
    <path opacity="0.8" d="M408.608 277.444L411.426 277.592L414.245 277.695L415.517 280.207L416.828 282.698L415.282 285.062L413.774 287.45L410.956 287.302L408.136 287.2L406.865 284.688L405.553 282.197L407.1 279.833L408.608 277.444Z" fill="#569AEF" />
    <path d="M110.615 68.5225C66.9174 46.7261 45.7579 101.486 104.312 131.434C154.2 156.933 183.689 153.111 208.984 155.081C254.849 158.694 323.926 179.625 292.215 205.96C267.792 226.233 229.243 218.052 248.912 194.345C264.275 175.833 363.099 163.478 391.546 105.941" stroke="#FFB469" strokeWidth="0.3" strokeDasharray="1 1" />
    <path d="M142.781 145.095L142.799 145.196L142.895 145.235C145.112 146.126 147.232 148.553 148.581 151.281C149.253 152.641 149.728 154.065 149.927 155.393C150.126 156.724 150.047 157.944 149.626 158.908C149.52 159.152 149.272 159.481 148.924 159.851C148.58 160.217 148.152 160.61 147.701 160.982C147.251 161.354 146.781 161.702 146.354 161.979C146.218 162.068 146.087 162.149 145.964 162.22C147.907 159.249 147.94 153.167 140.47 146.877C139.416 143.491 137.225 139.774 134.437 137.158C131.964 134.837 128.993 133.359 125.916 133.793L128.252 132.457C128.853 132.127 129.932 132.087 131.284 132.41C132.624 132.731 134.194 133.402 135.743 134.437C138.841 136.506 141.842 140.024 142.781 145.095Z" fill="#D1E4FA" stroke="#B0C3D7" strokeWidth="0.374635" />
    <path d="M123.09 137.199L123.397 140.277C122.806 139.992 122.016 139.832 121.272 139.782C120.822 139.751 120.379 139.759 119.993 139.807C119.897 139.819 119.803 139.833 119.714 139.85C119.912 139.677 120.152 139.474 120.416 139.255C121.256 138.56 122.327 137.722 123.09 137.199Z" fill="#D1E4FA" stroke="#B0C3D7" strokeWidth="0.374635" />
    <path d="M140.3 146.67L140.316 146.717L140.352 146.75C141.662 147.934 143.533 149.698 144.977 151.908C146.42 154.116 147.428 156.756 147.036 159.698C146.913 160.621 146.548 161.769 145.664 162.378C144.797 162.975 143.351 163.103 140.942 161.806C138.457 160.468 134.773 158.268 131.207 156.119C130.607 155.757 130.011 155.397 129.424 155.043C126.533 153.298 123.876 151.694 122.211 150.757C121.601 150.266 120.553 149.182 119.639 147.811C119.188 147.135 118.451 145.569 118.243 143.95C118.037 142.338 118.358 140.732 119.93 139.847C121.927 139.286 123.005 140.267 123.112 140.374C123.123 140.385 123.138 140.399 123.157 140.411C123.174 140.422 123.208 140.442 123.255 140.447C123.312 140.452 123.371 140.433 123.414 140.389C123.45 140.354 123.463 140.314 123.468 140.294C123.478 140.254 123.477 140.214 123.475 140.191C123.474 140.163 123.47 140.133 123.465 140.101C123.454 140.028 123.434 139.924 123.41 139.801C123.395 139.724 123.379 139.64 123.362 139.551C123.274 139.075 123.169 138.399 123.19 137.668C123.211 136.937 123.357 136.163 123.761 135.485C124.163 134.811 124.827 134.218 125.911 133.857C126.563 133.639 127.553 133.623 128.743 133.909C129.928 134.194 131.297 134.776 132.7 135.736C135.503 137.655 138.439 141.086 140.3 146.67Z" fill="white" stroke="#B0C3D7" strokeWidth="0.374635" />
    <path d="M186.167 195.8H199.817V214.4H186.167V236H163.367V214.4H116.117V192.5L153.467 134H179.267L139.817 195.8H163.367V176.45H186.167V195.8ZM216.781 151.25C223.781 137.95 234.931 131.3 250.231 131.3C265.531 131.3 276.681 137.95 283.681 151.25C288.281 160.55 290.581 171.8 290.581 185C290.581 198.2 288.281 209.45 283.681 218.75C276.681 232.05 265.531 238.7 250.231 238.7C234.931 238.7 223.781 232.05 216.781 218.75C212.081 209.55 209.731 198.3 209.731 185C209.731 171.7 212.081 160.45 216.781 151.25ZM250.231 151.55C244.631 151.55 240.381 154.55 237.481 160.55C234.881 166.25 233.581 174.4 233.581 185C233.581 195.6 234.881 203.75 237.481 209.45C240.381 215.45 244.631 218.45 250.231 218.45C255.931 218.45 260.231 215.45 263.131 209.45C265.731 204.05 267.031 195.9 267.031 185C267.031 174.1 265.731 165.95 263.131 160.55C260.231 154.55 255.931 151.55 250.231 151.55ZM372.642 195.8H386.292V214.4H372.642V236H349.842V214.4H302.592V192.5L339.942 134H365.742L326.292 195.8H349.842V176.45H372.642V195.8Z" fill="#5D9EEF" />
    <path d="M140.546 210.75L140.598 211.035L140.866 211.143C147.089 213.645 153.039 220.456 156.824 228.111C158.711 231.927 160.044 235.923 160.602 239.651C161.161 243.385 160.938 246.811 159.757 249.517C159.459 250.201 158.763 251.123 157.787 252.163C156.821 253.19 155.619 254.293 154.355 255.337C153.091 256.38 151.772 257.357 150.575 258.135C150.193 258.384 149.826 258.61 149.48 258.811C154.933 250.472 155.025 233.404 134.061 215.753C131.104 206.25 124.955 195.818 117.13 188.475C110.189 181.963 101.85 177.815 93.2148 179.033L99.7707 175.284C101.458 174.356 104.487 174.243 108.28 175.151C112.042 176.052 116.447 177.933 120.795 180.839C129.488 186.647 137.913 196.519 140.546 210.75Z" fill="#D1E4FA" stroke="#B0C3D7" strokeWidth="1.0514" />
    <path d="M482.611 160.29L482.637 160.431L482.771 160.485C485.868 161.73 488.829 165.12 490.713 168.93C491.652 170.829 492.315 172.818 492.593 174.673C492.871 176.532 492.76 178.236 492.172 179.583C492.024 179.924 491.678 180.383 491.192 180.9C490.711 181.411 490.113 181.96 489.484 182.479C488.855 182.999 488.198 183.485 487.603 183.872C487.412 183.996 487.23 184.109 487.058 184.208C489.772 180.058 489.817 171.564 479.384 162.779C477.912 158.05 474.852 152.858 470.958 149.204C467.504 145.963 463.353 143.899 459.056 144.505L462.319 142.639C463.158 142.177 464.666 142.121 466.553 142.573C468.426 143.021 470.618 143.957 472.782 145.403C477.108 148.294 481.301 153.207 482.611 160.29Z" fill="#D1E4FA" stroke="#B0C3D7" strokeWidth="0.523256" />
    <path d="M85.2835 188.592L86.1472 197.228C84.4884 196.429 82.2718 195.981 80.1817 195.839C78.9185 195.753 77.6753 195.776 76.5923 195.91C76.3235 195.943 76.0614 195.983 75.809 196.031C76.3669 195.545 77.0397 194.974 77.7814 194.361C80.1379 192.411 83.1445 190.058 85.2835 188.592Z" fill="#D1E4FA" stroke="#B0C3D7" strokeWidth="1.0514" />
    <path d="M455.109 149.262L455.538 153.56C454.713 153.162 453.61 152.94 452.57 152.869C451.941 152.826 451.322 152.838 450.783 152.904C450.649 152.921 450.519 152.941 450.393 152.965C450.671 152.722 451.006 152.439 451.375 152.133C452.548 151.163 454.044 149.992 455.109 149.262Z" fill="#D1E4FA" stroke="#B0C3D7" strokeWidth="0.523256" />
    <path d="M85.3176 197.073C85.3176 197.073 85.3176 197.072 85.3177 197.07C85.3177 197.072 85.3177 197.073 85.3176 197.073ZM133.585 215.171L133.629 215.302L133.731 215.394C137.406 218.719 142.656 223.669 146.709 229.87C150.76 236.068 153.589 243.477 152.488 251.734C152.143 254.323 151.119 257.546 148.637 259.256C146.203 260.931 142.146 261.29 135.384 257.649C128.411 253.894 118.073 247.719 108.065 241.688C106.382 240.673 104.708 239.663 103.061 238.668C94.9468 233.771 87.4902 229.27 82.8168 226.639C81.1066 225.262 78.1644 222.222 75.5991 218.374C74.333 216.475 72.2644 212.082 71.6823 207.537C71.1029 203.014 72.0037 198.506 76.4158 196.023C82.021 194.447 85.0461 197.201 85.3478 197.502C85.3782 197.533 85.4203 197.571 85.4729 197.606C85.5196 197.637 85.6154 197.693 85.7475 197.706C85.9083 197.721 86.073 197.666 86.1943 197.544C86.2939 197.444 86.3305 197.332 86.3452 197.276C86.3743 197.163 86.3703 197.051 86.3665 196.988C86.3619 196.91 86.3513 196.824 86.3382 196.736C86.3074 196.529 86.2506 196.238 86.1834 195.894C86.1414 195.678 86.0952 195.442 86.0488 195.192C85.8006 193.856 85.5073 191.958 85.5659 189.908C85.6245 187.857 86.0349 185.685 87.169 183.781C88.2961 181.889 90.1603 180.225 93.2016 179.211C95.0318 178.601 97.8106 178.555 101.149 179.358C104.476 180.158 108.318 181.791 112.254 184.486C120.122 189.872 128.361 199.499 133.585 215.171Z" fill="white" stroke="#B0C3D7" strokeWidth="1.0514" />
    <path d="M479.147 162.49L479.169 162.555L479.22 162.601C481.049 164.256 483.662 166.719 485.678 169.805C487.695 172.89 489.103 176.577 488.555 180.686C488.383 181.975 487.874 183.579 486.638 184.43C485.427 185.264 483.408 185.442 480.043 183.63C476.572 181.761 471.427 178.688 466.447 175.687C465.609 175.182 464.776 174.679 463.956 174.184C459.918 171.747 456.207 169.506 453.881 168.197C453.03 167.512 451.566 165.999 450.289 164.084C449.659 163.139 448.629 160.952 448.34 158.691C448.051 156.44 448.5 154.196 450.695 152.961C453.485 152.176 454.99 153.546 455.141 153.697C455.156 153.712 455.177 153.731 455.203 153.748C455.226 153.764 455.274 153.791 455.339 153.798C455.42 153.805 455.502 153.778 455.562 153.717C455.611 153.667 455.63 153.612 455.637 153.584C455.651 153.528 455.649 153.472 455.648 153.44C455.645 153.402 455.64 153.359 455.633 153.315C455.618 153.212 455.59 153.067 455.556 152.896C455.536 152.789 455.513 152.671 455.489 152.547C455.366 151.882 455.22 150.937 455.249 149.917C455.278 148.896 455.483 147.815 456.047 146.868C456.608 145.926 457.536 145.098 459.049 144.593C459.96 144.29 461.343 144.267 463.005 144.666C464.66 145.065 466.573 145.877 468.531 147.218C472.447 149.899 476.547 154.69 479.147 162.49Z" fill="white" stroke="#B0C3D7" strokeWidth="0.523256" />
</svg>